# xmcd
#
# Track frame offsets:
#	150
#	13260
#	28802
#	44472
#	55207
#	69477
#	80082
#	92997
#	106655
#	117722
#	130325
#	143310
#	157232
#	168637
#	182152
#	194260
#	203200
#	211777
#	220967
#	234685
#	247645
#
# Disc length: 3461 seconds
#
# Revision: 1
# Processed by: cddbd v1.4PL0 Copyright (c) Steve Scherf et al.
# Submitted via: audiograbber 1.80
#
DISCID=360d8315
DTITLE=Henri Salvador - Le meilleur
DYEAR=1900
DGENRE=
TTITLE0=Bon voyage
TTITLE1=Blouse du dentiste
TTITLE2=Faut rigoler
TTITLE3=Une ile au soleil
TTITLE4=Le petit indien
TTITLE5=Ca pince
TTITLE6=Allo brigitte babylone
TTITLE7=Le roi du fox - trot
TTITLE8=Ca c'est de la musique
TTITLE9=Coutufon et foucoutu
TTITLE10=y'a rien  d'aussi beau
TTITLE11=j'peux pas travailler
TTITLE12=le gars de rochechouart
TTITLE13=Buenas noche mi amor
TTITLE14=Monsieur boum boum
TTITLE15=Clolonel Bogey
TTITLE16=Le cingle de la grosse caisse
TTITLE17=Come prima
TTITLE18=Oh ! quand les saints
TTITLE19=va te faire cuire un oeuf, man
TTITLE20=Le rire
EXTD=
EXTT0=
EXTT1=
EXTT2=
EXTT3=
EXTT4=
EXTT5=
EXTT6=
EXTT7=
EXTT8=
EXTT9=
EXTT10=
EXTT11=
EXTT12=
EXTT13=
EXTT14=
EXTT15=
EXTT16=
EXTT17=
EXTT18=
EXTT19=
EXTT20=
PLAYORDER=
